ffmpeg version 3.4.8-0ubuntu0.2 Copyright (c) 2000-2020 the FFmpeg developers
  built with gcc 7 (Ubuntu 7.5.0-3ubuntu1~18.04)
  configuration: --prefix=/usr --extra-version=0ubuntu0.2 --toolchain=hardened --libdir=/usr/lib/x86_64-linux-gnu --incdir=/usr/include/x86_64-linux-gnu --enable-gpl --disable-stripping --enable-avresample --enable-avisynth --enable-gnutls --enable-ladspa --enable-libass --enable-libbluray --enable-libbs2b --enable-libcaca --enable-libcdio --enable-libflite --enable-libfontconfig --enable-libfreetype --enable-libfribidi --enable-libgme --enable-libgsm --enable-libmp3lame --enable-libmysofa --enable-libopenjpeg --enable-libopenmpt --enable-libopus --enable-libpulse --enable-librubberband --enable-librsvg --enable-libshine --enable-libsnappy --enable-libsoxr --enable-libspeex --enable-libssh --enable-libtheora --enable-libtwolame --enable-libvorbis --enable-libvpx --enable-libwavpack --enable-libwebp --enable-libx265 --enable-libxml2 --enable-libxvid --enable-libzmq --enable-libzvbi --enable-omx --enable-openal --enable-opengl --enable-sdl2 --enable-libdc1394 --enable-libdrm --enable-libiec61883 --enable-chromaprint --enable-frei0r --enable-libopencv --enable-libx264 --enable-shared
  libavutil      55. 78.100 / 55. 78.100
  libavcodec     57.107.100 / 57.107.100
  libavformat    57. 83.100 / 57. 83.100
  libavdevice    57. 10.100 / 57. 10.100
  libavfilter     6.107.100 /  6.107.100
  libavresample   3.  7.  0 /  3.  7.  0
  libswscale      4.  8.100 /  4.  8.100
  libswresample   2.  9.100 /  2.  9.100
  libpostproc    54.  7.100 / 54.  7.100
[mxf @ 0x55be4c9a6000] invalid KAGSize 0 - guessing 512
[mxf @ 0x55be4c9a6000] invalid KAGSize 0 - guessing 512
[mxf @ 0x55be4c9a6000] failed to find absolute offset of 100000 in BodySID 2 - partial file?
Guessed Channel Layout for Input Stream #0.1 : stereo
Guessed Channel Layout for Input Stream #0.2 : stereo
Guessed Channel Layout for Input Stream #0.3 : stereo
Guessed Channel Layout for Input Stream #0.4 : stereo
Input #0, mxf, from '../.././Samples/C0023S01.mxf':
  Metadata:
    uid             : 89721e00-1139-05c1-00f1-080046020222
    generation_uid  : 89721e00-1139-05c2-00f1-080046020222
    company_name    : SONY
    product_name    : Opt 
    product_version : 1.40
    product_uid     : 060e2b34-0401-0103-0e06-012002010200
    modification_date: 2006-06-25T23:09:48.000000Z
    material_package_umid: 0x060A2B340101010501010D4313FF0000B36F1E00113905A508004602022200F1
    timecode        : 01:43:48:21
  Duration: 00:00:03.80, start: 0.000000, bitrate: 2483 kb/s
    Stream #0:0: Video: mpeg4, yuv420p(progressive), 352x288 [SAR 16:11 DAR 16:9], 25 fps, 25 tbr, 25 tbn, 25 tbc
    Metadata:
      file_package_umid: 0x060A2B340101010501010D4313FF0000B46F1E00113905A508004602022200F1
    Stream #0:1: Audio: pcm_alaw, 8000 Hz, stereo, s16, 128 kb/s
    Metadata:
      file_package_umid: 0x060A2B340101010501010D4313FF0000B46F1E00113905A508004602022200F1
    Stream #0:2: Audio: pcm_alaw, 8000 Hz, stereo, s16, 128 kb/s
    Metadata:
      file_package_umid: 0x060A2B340101010501010D4313FF0000B46F1E00113905A508004602022200F1
    Stream #0:3: Audio: pcm_alaw, 8000 Hz, stereo, s16, 128 kb/s
    Metadata:
      file_package_umid: 0x060A2B340101010501010D4313FF0000B46F1E00113905A508004602022200F1
    Stream #0:4: Audio: pcm_alaw, 8000 Hz, stereo, s16, 128 kb/s
    Metadata:
      file_package_umid: 0x060A2B340101010501010D4313FF0000B46F1E00113905A508004602022200F1
Stream mapping:
  Stream #0:0 -> #0:0 (mpeg4 (native) -> h264 (libx264))
  Stream #0:1 -> #0:1 (pcm_alaw (native) -> aac (native))
Press [q] to stop, [?] for help
[libx264 @ 0x55be4c9bf900] using SAR=16/11
[libx264 @ 0x55be4c9bf900] using cpu capabilities: MMX2 SSE2Fast SSSE3 SSE4.2 AVX FMA3 BMI2 AVX2
[libx264 @ 0x55be4c9bf900] profile High, level 1.3
[libx264 @ 0x55be4c9bf900] 264 - core 152 r2854 e9a5903 - H.264/MPEG-4 AVC codec - Copyleft 2003-2017 - http://www.videolan.org/x264.html - options: cabac=1 ref=3 deblock=1:0:0 analyse=0x3:0x113 me=hex subme=7 psy=1 psy_rd=1.00:0.00 mixed_ref=1 me_range=16 chroma_me=1 trellis=1 8x8dct=1 cqm=0 deadzone=21,11 fast_pskip=1 chroma_qp_offset=-2 threads=6 lookahead_threads=1 sliced_threads=0 nr=0 decimate=1 interlaced=0 bluray_compat=0 constrained_intra=0 bframes=3 b_pyramid=2 b_adapt=1 b_bias=0 direct=1 weightb=1 open_gop=0 weightp=2 keyint=250 keyint_min=25 scenecut=40 intra_refresh=0 rc_lookahead=40 rc=crf mbtree=1 crf=23.0 qcomp=0.60 qpmin=0 qpmax=69 qpstep=4 ip_ratio=1.40 aq=1:1.00
[mpeg4 @ 0x55be4c9ea500] slice end not reached but screenspace end (266035 left 6FEFEF, score= -3)
[mpeg4 @ 0x55be4c9ea500] concealing 396 DC, 396 AC, 396 MV errors in P frame
[mpeg4 @ 0x55be4c9ea500] slice end not reached but screenspace end (257708 left 77F7F7, score= -10)
[mpeg4 @ 0x55be4c9ea500] concealing 396 DC, 396 AC, 396 MV errors in P frame
[mpeg4 @ 0x55be4c9ea500] slice end not reached but screenspace end (227856 left 7F7F7F, score= -18)
[mpeg4 @ 0x55be4c9ea500] concealing 396 DC, 396 AC, 396 MV errors in P frame
[mpeg4 @ 0x55be4c9ea500] slice end not reached but screenspace end (245238 left 7DFDFD, score= -26)
[mpeg4 @ 0x55be4c9ea500] concealing 396 DC, 396 AC, 396 MV errors in P frame
[aac @ 0x55be4c9c0800] Too many bits 16384.000000 > 12288 per frame requested, clamping to max
Output #0, mov, to '/home/aleksandr/Pract/Samples/C0023S01.mxf_tc/output_tc1.mov':
  Metadata:
    uid             : 89721e00-1139-05c1-00f1-080046020222
    generation_uid  : 89721e00-1139-05c2-00f1-080046020222
    company_name    : SONY
    product_name    : Opt 
    product_version : 1.40
    product_uid     : 060e2b34-0401-0103-0e06-012002010200
    modification_date: 2006-06-25T23:09:48.000000Z
    material_package_umid: 0x060A2B340101010501010D4313FF0000B36F1E00113905A508004602022200F1
    timecode        : 01:43:48:21
    encoder         : Lavf57.83.100
    Stream #0:0: Video: h264 (libx264) (avc1 / 0x31637661), yuv420p(progressive), 352x288 [SAR 16:11 DAR 16:9], q=-1--1, 25 fps, 12800 tbn, 25 tbc
    Metadata:
      file_package_umid: 0x060A2B340101010501010D4313FF0000B46F1E00113905A508004602022200F1
      encoder         : Lavc57.107.100 libx264
    Side data:
      cpb: bitrate max/min/avg: 0/0/0 buffer size: 0 vbv_delay: -1
    Stream #0:1: Audio: aac (LC) (mp4a / 0x6134706D), 8000 Hz, stereo, fltp, 96 kb/s
    Metadata:
      file_package_umid: 0x060A2B340101010501010D4313FF0000B46F1E00113905A508004602022200F1
      encoder         : Lavc57.107.100 aac
[mpeg4 @ 0x55be4c9ea500] slice end not reached but screenspace end (231474 left 5FDFDF, score= -32)
[mpeg4 @ 0x55be4c9ea500] concealing 396 DC, 396 AC, 396 MV errors in P frame
[mpeg4 @ 0x55be4c9ea500] slice end not reached but screenspace end (248586 left 5FDFDF, score= -39)
[mpeg4 @ 0x55be4c9ea500] concealing 396 DC, 396 AC, 396 MV errors in P frame
[mpeg4 @ 0x55be4c9ea500] slice end not reached but screenspace end (234925 left 7BFBFB, score= -47)
[mpeg4 @ 0x55be4c9ea500] concealing 396 DC, 396 AC, 396 MV errors in P frame
[mpeg4 @ 0x55be4c9ea500] slice end not reached but screenspace end (255728 left 7F7F7F, score= -52)
[mpeg4 @ 0x55be4c9ea500] concealing 396 DC, 396 AC, 396 MV errors in P frame
[mpeg4 @ 0x55be4c9ea500] slice end not reached but screenspace end (249366 left 7DFDFD, score= -60)
[mpeg4 @ 0x55be4c9ea500] concealing 396 DC, 396 AC, 396 MV errors in P frame
[mxf @ 0x55be4c9a6000] failed to find absolute offset of 100000 in BodySID 2 - partial file?
[mpeg4 @ 0x55be4c9ea500] slice end not reached but screenspace end (363866 left 5FDFDF, score= -64)
[mpeg4 @ 0x55be4c9ea500] concealing 396 DC, 396 AC, 396 MV errors in P frame
frame=   96 fps=0.0 q=-1.0 Lsize=      78kB time=00:00:04.09 bitrate= 156.0kbits/s dup=1 drop=0 speed=14.3x    
video:50kB audio:24kB subtitle:0kB other streams:0kB global headers:0kB muxing overhead: 5.031893%
[libx264 @ 0x55be4c9bf900] frame I:1     Avg QP:16.72  size:  4532
[libx264 @ 0x55be4c9bf900] frame P:29    Avg QP:19.20  size:  1033
[libx264 @ 0x55be4c9bf900] frame B:66    Avg QP:20.03  size:   240
[libx264 @ 0x55be4c9bf900] consecutive B-frames:  6.2%  4.2%  6.2% 83.3%
[libx264 @ 0x55be4c9bf900] mb I  I16..4: 45.7% 48.5%  5.8%
[libx264 @ 0x55be4c9bf900] mb P  I16..4:  3.2% 12.2%  0.0%  P16..4: 30.2%  8.2%  5.1%  0.0%  0.0%    skip:41.0%
[libx264 @ 0x55be4c9bf900] mb B  I16..4:  0.6%  0.8%  0.0%  B16..8: 25.8%  2.3%  0.0%  direct: 4.3%  skip:66.3%  L0:50.0% L1:46.8% BI: 3.2%
[libx264 @ 0x55be4c9bf900] 8x8 transform intra:71.2% inter:74.9%
[libx264 @ 0x55be4c9bf900] coded y,uvDC,uvAC intra: 20.1% 17.6% 2.1% inter: 3.5% 9.4% 0.3%
[libx264 @ 0x55be4c9bf900] i16 v,h,dc,p: 29% 46% 19%  6%
[libx264 @ 0x55be4c9bf900] i8 v,h,dc,ddl,ddr,vr,hd,vl,hu: 21% 24% 52%  1%  0%  0%  0%  1%  1%
[libx264 @ 0x55be4c9bf900] i4 v,h,dc,ddl,ddr,vr,hd,vl,hu: 17% 16% 15%  8%  9% 12%  6% 11%  5%
[libx264 @ 0x55be4c9bf900] i8c dc,h,v,p: 59% 21% 19%  1%
[libx264 @ 0x55be4c9bf900] Weighted P-Frames: Y:0.0% UV:0.0%
[libx264 @ 0x55be4c9bf900] ref P L0: 50.8%  4.3% 28.7% 16.3%
[libx264 @ 0x55be4c9bf900] ref B L0: 73.3% 18.1%  8.6%
[libx264 @ 0x55be4c9bf900] ref B L1: 93.0%  7.0%
[libx264 @ 0x55be4c9bf900] kb/s:104.82
[aac @ 0x55be4c9c0800] Qavg: 60341.176
	Command being timed: "/usr/bin/ffmpeg -i ../.././Samples/C0023S01.mxf -c:v libx264 -f mov /home/aleksandr/Pract/Samples/C0023S01.mxf_tc/output_tc1.mov"
	User time (seconds): 0.70
	System time (seconds): 0.02
	Percent of CPU this job got: 215%
	Elapsed (wall clock) time (h:mm:ss or m:ss): 0:00.34
	Average shared text size (kbytes): 0
	Average unshared data size (kbytes): 0
	Average stack size (kbytes): 0
	Average total size (kbytes): 0
	Maximum resident set size (kbytes): 87316
	Average resident set size (kbytes): 0
	Major (requiring I/O) page faults: 0
	Minor (reclaiming a frame) page faults: 13720
	Voluntary context switches: 1130
	Involuntary context switches: 246
	Swaps: 0
	File system inputs: 0
	File system outputs: 184
	Socket messages sent: 0
	Socket messages received: 0
	Signals delivered: 0
	Page size (bytes): 4096
	Exit status: 0
